<svg xmlns="http://www.w3.org/2000/svg" style="display:none">
  <symbol id="bp-icon-ball" viewBox="0 0 24 24">
    <circle cx="12" cy="12" r="9"/>
    <path d="M12 7.2l3.7 2.7-1.4 4.35h-4.6L8.3 9.9z"/>
    <path d="M12 7.2V3.5M15.7 9.9l3.5-1.2M14.3 14.25l2.4 3M9.7 14.25l-2.4 3M8.3 9.9L4.8 8.7"/>
  </symbol>
  <symbol id="bp-icon-swap" viewBox="0 0 24 24">
    <path d="M4 8h13l-3-3M20 16H7l3 3"/>
  </symbol>
  <symbol id="bp-icon-card" viewBox="0 0 24 24">
    <rect x="7" y="3" width="10" height="18" rx="1.5"/>
  </symbol>
  <symbol id="bp-icon-clock" viewBox="0 0 24 24">
    <circle cx="12" cy="12" r="9"/>
    <path d="M12 7v5l3 2"/>
  </symbol>
  <symbol id="bp-icon-play" viewBox="0 0 24 24">
    <path d="M7 4l13 8-13 8z" fill="currentColor" stroke="none"/>
  </symbol>
  <symbol id="bp-icon-team" viewBox="0 0 24 24">
    <circle cx="9" cy="9" r="3"/>
    <path d="M3 19c1-3 3-5 6-5s5 2 6 5"/>
    <circle cx="17" cy="7" r="2"/>
    <path d="M15 14c2-1 4-1 6 1"/>
  </symbol>
  <symbol id="bp-icon-matches" viewBox="0 0 24 24">
    <rect x="3" y="5" width="18" height="14" rx="2"/>
    <path d="M3 10h18M12 5v14"/>
  </symbol>
  <symbol id="bp-icon-stats" viewBox="0 0 24 24">
    <path d="M4 20V10M10 20V4M16 20v-7M22 20H2"/>
  </symbol>
  <symbol id="bp-icon-settings" viewBox="0 0 24 24">
    <circle cx="12" cy="12" r="2.6"/>
    <path d="M12 3v2M12 19v2M3 12h2M19 12h2M5.6 5.6l1.4 1.4M17 17l1.4 1.4M5.6 18.4L7 17M17 7l1.4-1.4"/>
  </symbol>
  <symbol id="bp-icon-plus" viewBox="0 0 24 24">
    <path d="M12 5v14M5 12h14"/>
  </symbol>
  <symbol id="bp-icon-check" viewBox="0 0 24 24">
    <path d="M5 12l4 4 10-10"/>
  </symbol>
  <symbol id="bp-icon-x" viewBox="0 0 24 24">
    <path d="M6 6l12 12M18 6L6 18"/>
  </symbol>
</svg>
